<?xml version="1.0" standalone="no"?>
<!DOCTYPE svg PUBLIC "-//W3C//DTD SVG 20010904//EN"
 "http://www.w3.org/TR/2001/REC-SVG-20010904/DTD/svg10.dtd">
<svg version="1.0" xmlns="http://www.w3.org/2000/svg"
 width="1536.000000pt" height="1024.000000pt" viewBox="0 0 1536.000000 1024.000000"
 preserveAspectRatio="xMidYMid meet">

<g transform="translate(0.000000,1024.000000) scale(0.100000,-0.100000)"
fill="#000000" stroke="none">
<path d="M0 5120 l0 -5120 7680 0 7680 0 0 5120 0 5120 -7680 0 -7680 0 0
-5120z m10114 2885 c137 -8 251 -17 254 -19 2 -3 -69 -125 -159 -272 -138
-226 -176 -280 -244 -349 -88 -89 -182 -145 -309 -184 -73 -22 -415 -75 -444
-68 -9 2 11 7 46 11 66 9 76 14 62 36 -6 9 -23 13 -47 12 -28 -2 -34 0 -23 8
13 9 13 10 0 11 -8 1 -21 1 -29 0 -7 -2 -10 2 -6 8 3 6 -1 11 -9 11 -9 0 -16
5 -16 10 0 15 -57 12 -63 -2 -3 -7 -6 -3 -6 8 -1 18 -6 21 -33 18 -25 -3 -29
-1 -20 8 7 7 12 17 12 22 0 6 -5 4 -10 -4 -9 -13 -12 -13 -24 3 -8 10 -18 17
-22 16 -32 -5 -43 15 -19 33 6 5 3 8 -7 8 -9 0 -20 9 -23 20 -4 12 -15 20 -28
20 -18 0 -19 -2 -7 -10 11 -7 6 -10 -20 -9 -29 0 -31 2 -15 9 17 7 16 9 -9 9
-30 1 -28 16 1 16 9 0 18 7 20 15 4 13 3 13 -6 0 -6 -9 -11 -10 -11 -3 0 12
-18 12 -39 -1 -8 -5 -7 1 4 18 16 24 16 26 1 20 -9 -3 -16 -11 -16 -17 0 -6
-3 -7 -6 -4 -4 4 -1 13 6 22 15 18 7 19 -20 3 -17 -11 -22 -10 -30 2 -8 12 -3
16 20 18 30 3 39 15 20 27 -5 3 -10 0 -11 -7 0 -10 -2 -10 -6 0 -6 14 -33 16
-33 2 0 -5 -5 -10 -12 -10 -6 0 -8 3 -5 7 4 3 2 12 -4 19 -9 11 -7 15 5 19 9
3 23 7 31 10 26 8 16 25 -15 25 -16 0 -30 5 -30 10 0 6 -8 10 -17 9 -12 0 -13
-2 -5 -6 10 -4 10 -8 1 -19 -18 -22 -39 -17 -39 11 0 14 4 25 9 25 5 0 11 7
15 15 3 8 0 14 -7 12 -7 -1 -11 5 -9 13 8 36 -8 12 -248 -370 -57 -91 -109
-170 -117 -176 -7 -6 -9 -15 -5 -19 4 -5 1 -5 -5 -1 -7 4 -13 4 -14 -1 -3 -31
-11 -47 -40 -75 -27 -27 -31 -28 -18 -8 9 14 107 178 219 365 178 296 214 350
284 423 142 148 251 206 501 266 36 9 595 -3 849 -19z m-4014 -39 c152 -40
310 -144 413 -271 26 -33 174 -276 329 -540 361 -618 661 -1127 907 -1540 167
-280 206 -340 267 -401 168 -170 408 -200 584 -73 47 34 46 32 -24 -65 -87
-120 -221 -213 -369 -254 -54 -15 -118 -17 -522 -17 l-460 0 -80 27 c-115 40
-215 99 -297 176 -86 81 -121 131 -280 392 -69 113 -211 345 -315 515 -616
1006 -867 1416 -1050 1713 -112 184 -207 340 -210 348 -5 13 59 15 518 11 456
-3 532 -6 589 -21z m2587 -408 c-3 -8 -6 -5 -6 6 -1 11 2 17 5 13 3 -3 4 -12
1 -19z m283 -217 c0 -13 -28 -22 -35 -11 -3 4 1 11 7 13 20 8 28 8 28 -2z
m208 -238 c-10 -2 -26 -2 -35 0 -10 3 -2 5 17 5 19 0 27 -2 18 -5z m-68 -7 c0
-2 -46 -9 -102 -16 -238 -28 -412 -96 -558 -219 -30 -25 -49 -38 -41 -28 20
26 128 108 186 143 60 36 161 77 233 94 79 18 282 37 282 26z m-875 -185 c-8
-17 -19 -33 -25 -36 -5 -3 -1 10 11 29 25 43 36 48 14 7z m2070 -2665 c181
-50 292 -167 327 -342 16 -81 16 -413 -1 -489 -31 -142 -110 -253 -216 -301
-119 -55 -155 -59 -505 -59 l-325 0 -80 27 c-164 55 -240 135 -291 303 -26 85
-27 450 -1 542 50 187 166 291 362 327 118 22 645 16 730 -8z m-6887 -4 c9
-10 116 -219 237 -464 121 -246 223 -447 228 -447 4 -1 7 3 7 9 0 16 429 883
447 902 14 16 34 18 159 18 l143 0 -131 -257 c-72 -142 -204 -403 -294 -580
l-164 -321 -48 -24 c-63 -30 -186 -32 -250 -3 -49 22 -24 -22 -351 620 -90
176 -193 375 -228 443 l-65 122 146 0 c128 0 148 -2 164 -18z m2642 -72 c0
-85 -2 -92 -26 -115 l-27 -25 -443 0 -444 0 0 -125 0 -125 403 -2 402 -3 0
-82 c0 -77 -2 -84 -28 -110 l-28 -28 -374 0 -375 0 0 -132 0 -133 470 0 470 0
0 -89 c0 -87 -1 -90 -31 -115 l-31 -26 -554 0 -555 0 -24 25 -25 24 0 549 0
549 25 27 24 26 586 0 585 0 0 -90z m1510 3 c0 -81 -2 -89 -27 -115 l-27 -28
-233 0 -233 0 0 -462 c0 -560 17 -508 -162 -508 l-118 0 0 485 0 485 -261 0
-261 0 4 94 c5 151 -72 136 680 136 l638 0 0 -87z m1490 -2 c0 -82 -2 -90 -26
-115 l-27 -26 -233 0 -233 0 -3 -468 c-2 -380 -6 -472 -17 -485 -11 -14 -34
-17 -137 -17 l-124 0 0 485 0 485 -255 0 -255 0 0 95 c0 150 -75 135 675 135
l635 0 0 -89z m2904 69 c185 -47 259 -157 260 -380 0 -135 -18 -207 -67 -272
-61 -80 -134 -114 -292 -134 l-50 -6 36 -31 c20 -18 111 -99 204 -182 93 -82
175 -155 184 -162 13 -10 -21 -12 -165 -13 l-180 0 -255 227 c-140 125 -283
256 -319 290 -62 60 -64 63 -47 80 16 16 46 18 305 23 312 5 318 7 352 63 30
48 28 172 -3 218 -42 63 -77 68 -444 69 l-323 0 0 -469 0 -470 -22 -15 c-17
-12 -49 -16 -135 -16 l-113 0 0 577 0 577 22 23 21 23 477 0 c441 0 483 -1
554 -20z m-6102 -1569 c11 -11 9 -12 -8 -7 -21 6 -28 -10 -18 -43 4 -11 7 -11
22 0 15 13 16 12 4 -3 -12 -14 -16 -15 -40 -2 -62 32 -137 5 -130 -47 3 -16 2
-27 0 -24 -3 3 -10 1 -16 -4 -6 -4 -21 -11 -34 -14 -17 -4 -23 0 -28 19 -10
39 3 73 25 67 13 -3 23 2 31 17 16 30 5 37 -22 14 -12 -10 -18 -13 -14 -6 21
36 70 53 143 50 44 -2 77 -9 85 -17z m457 -2 c-30 -30 -13 -41 57 -37 52 3 59
6 62 25 3 17 -3 22 -25 26 -16 2 -6 5 25 6 l52 1 0 -35 0 -35 -105 0 -105 0 0
-55 0 -55 100 0 c55 0 100 -4 100 -8 0 -5 -6 -9 -12 -10 -7 -1 -35 -8 -63 -16
l-50 -15 40 -2 c26 -2 13 -5 -35 -8 l-75 -6 -3 -62 -3 -63 111 0 110 0 0 -30
0 -30 -145 0 -145 0 0 215 0 215 65 0 65 0 -21 -21z m809 1 c23 -10 42 -22 42
-25 0 -3 -9 -1 -19 5 -11 5 -31 14 -45 20 -26 10 -26 10 -12 -19 19 -35 13
-42 -26 -29 -16 6 -50 8 -75 5 -53 -6 -109 -53 -118 -101 -13 -62 -16 -70 -26
-55 -6 10 -9 8 -9 -8 0 -13 0 -26 -1 -30 -1 -17 20 -13 24 4 4 16 5 16 6 -2 2
-28 34 -74 67 -96 19 -12 49 -19 84 -20 30 -1 45 -4 33 -6 -22 -4 -22 -4 -2
-24 22 -22 29 -23 80 -7 38 11 53 28 25 28 -7 0 -19 7 -26 15 -10 12 -8 22 14
55 14 22 26 51 26 64 l0 25 -27 -25 c-15 -14 -29 -21 -31 -15 -2 6 -21 11 -43
11 -37 0 -39 2 -39 30 l0 30 78 0 77 0 -5 -107 -5 -106 -39 -14 c-56 -19 -136
-26 -171 -14 l-30 9 28 1 c16 1 26 5 22 11 -3 6 3 10 15 10 36 0 12 17 -33 24
-67 10 -101 -9 -54 -32 12 -6 17 -11 11 -11 -20 -2 -78 44 -101 78 -26 38 -31
65 -7 35 15 -18 15 -18 8 5 -5 18 -3 22 7 16 8 -5 5 1 -5 14 -15 16 -22 19
-29 9 -5 -8 -7 12 -4 52 7 99 41 153 122 191 54 25 156 25 213 -1z m454 -142
c2 -90 5 -170 8 -178 3 -9 0 -14 -8 -12 -8 1 -11 -2 -8 -7 8 -13 134 -13 158
0 37 20 48 69 48 218 l0 140 35 -2 35 -2 0 -155 c0 -128 -3 -161 -18 -190 -18
-36 -74 -80 -101 -80 -9 0 3 9 25 19 54 24 59 35 25 47 -23 9 -34 7 -74 -20
-53 -35 -57 -43 -24 -49 12 -3 1 -3 -25 -1 -59 4 -100 25 -130 66 -21 31 -23
44 -26 201 l-4 167 41 0 40 0 3 -162z m835 143 c58 -27 77 -59 71 -123 -4 -40
-11 -57 -32 -75 -15 -13 -34 -23 -42 -23 -18 0 -18 -15 2 -46 13 -19 14 -28 5
-37 -6 -6 -11 -7 -11 -3 0 5 -7 3 -15 -4 -11 -9 -12 -17 -3 -33 10 -20 11 -20
24 -2 7 10 11 21 9 26 -3 4 -1 10 4 13 8 5 71 -84 71 -100 0 -3 -19 -4 -41 -2
-41 3 -43 5 -88 85 -41 73 -49 82 -79 85 -18 2 -35 2 -37 -1 -3 -2 -5 -42 -5
-88 l0 -83 -35 0 -35 0 0 215 0 215 98 0 c73 0 107 -5 139 -19z m671 4 c47
-20 79 -50 103 -97 19 -37 27 -114 11 -104 -5 3 -20 -6 -35 -20 l-27 -25 0 43
c0 147 -160 210 -260 104 -32 -35 -41 -136 -16 -184 9 -18 17 -35 19 -39 1 -5
6 -7 10 -5 4 1 18 -4 30 -13 25 -18 99 -20 130 -4 12 6 32 20 43 31 16 15 24
16 29 7 5 -7 4 -10 -3 -5 -6 3 -13 2 -16 -3 -14 -21 23 -3 49 24 16 18 25 23
21 13 -3 -10 -1 -18 4 -18 5 0 12 11 16 25 4 14 9 24 11 21 13 -13 -23 -79
-61 -114 -114 -105 -309 -66 -362 74 -12 32 -15 61 -11 104 8 97 58 164 142
191 38 13 136 9 173 -6z m670 -6 c21 -15 21 -17 5 -30 -11 -9 -14 -10 -9 -1
11 18 1 15 -15 -5 -10 -11 -10 -14 -1 -9 6 4 12 3 12 -2 0 -18 -14 -21 -41 -7
-57 30 -129 8 -129 -39 0 -31 24 -50 90 -71 61 -20 100 -42 100 -57 0 -5 -5
-6 -12 -2 -7 4 -8 3 -4 -5 4 -6 11 -9 16 -6 14 9 22 -33 15 -74 -13 -79 -110
-127 -202 -103 -27 7 -58 20 -71 28 l-23 15 23 28 23 27 30 -18 c46 -27 109
-24 134 8 11 14 17 32 14 40 -3 8 0 20 6 27 8 10 7 14 -4 14 -8 0 -11 -5 -8
-10 3 -6 1 -7 -5 -3 -6 4 -9 13 -5 21 5 14 -16 21 -57 17 -62 -6 -125 40 -135
96 -7 44 9 97 27 86 7 -4 8 -3 4 4 -4 7 6 20 26 32 27 17 46 20 103 18 44 -2
79 -9 93 -19z m-2608 -53 c0 -2 -8 -10 -17 -17 -16 -13 -17 -12 -4 4 13 16 21
21 21 13z m-1301 -142 c72 -42 66 -160 -9 -199 -39 -20 -108 -28 -145 -16 -25
8 -26 9 -7 10 21 1 21 2 5 19 -11 11 -27 16 -42 13 -23 -4 -23 -5 -6 -17 27
-20 9 -17 -21 2 l-25 17 27 28 27 28 25 -19 c34 -27 105 -27 132 0 23 23 24
33 9 63 -9 19 -8 20 3 6 11 -14 18 -15 42 -5 l28 11 -22 27 c-21 28 -39 28
-71 2 -13 -12 -25 -11 -76 7 -34 11 -69 30 -79 42 -19 22 -19 22 2 5 24 -21
57 -23 73 -5 7 10 7 17 0 24 -14 14 93 -21 130 -43z m628 -20 c-3 -3 -12 -4
-19 -1 -8 3 -5 6 6 6 11 1 17 -2 13 -5z"/>
<path d="M9638 4016 c-138 -38 -173 -122 -166 -396 4 -137 7 -161 27 -203 13
-26 38 -58 55 -71 66 -48 84 -51 366 -51 l265 0 56 26 c107 50 133 128 127
374 -3 157 -4 161 -34 215 -26 45 -42 60 -89 85 l-59 30 -250 2 c-180 2 -264
-1 -298 -11z"/>
<path d="M6255 2570 c-3 -5 -1 -18 4 -27 9 -16 10 -14 11 10 0 28 -5 34 -15
17z"/>
<path d="M6220 2368 c0 -17 8 -29 25 -36 24 -11 25 -10 25 18 0 17 -4 30 -9
30 -5 0 -16 3 -25 6 -12 5 -16 0 -16 -18z"/>
<path d="M6283 2290 c-2 -18 4 -20 50 -19 29 0 47 3 40 5 -7 3 -9 12 -6 20 4
11 -5 14 -39 14 -37 0 -44 -3 -45 -20z"/>
<path d="M6896 2654 c-26 -14 -27 -17 -13 -31 22 -23 77 -1 70 28 -6 23 -18
23 -57 3z"/>
<path d="M7040 2474 c0 -14 3 -14 15 -4 8 7 15 14 15 16 0 2 -7 4 -15 4 -8 0
-15 -7 -15 -16z"/>
<path d="M7791 2664 c0 -11 3 -14 6 -6 3 7 2 16 -1 19 -3 4 -6 -2 -5 -13z"/>
<path d="M7792 2475 c0 -16 2 -22 5 -12 2 9 2 23 0 30 -3 6 -5 -1 -5 -18z"/>
<path d="M8190 2643 c0 -18 7 -45 16 -59 9 -13 20 -39 24 -57 6 -27 8 -21 11
34 4 62 2 68 -23 92 l-28 25 0 -35z"/>
<path d="M8370 2661 c0 -5 -8 -11 -17 -14 -15 -3 -14 -6 7 -15 21 -9 15 -11
-42 -11 l-68 -1 0 -60 c0 -45 4 -60 14 -60 8 0 16 -6 19 -14 3 -7 20 -16 39
-19 18 -2 42 -7 53 -10 24 -6 89 19 81 31 -2 4 -31 7 -63 6 -51 -2 -54 -1 -25
7 45 13 62 51 40 89 -14 25 -14 27 1 23 9 -2 25 2 35 10 19 14 19 15 -12 31
-35 18 -62 21 -62 7z m-53 -167 c-3 -3 -12 -4 -19 -1 -8 3 -5 6 6 6 11 1 17
-2 13 -5z"/>
<path d="M8203 2295 c-18 -20 -16 -25 12 -25 18 0 25 5 25 20 0 23 -19 26 -37
5z"/>
<path d="M8953 2666 c3 -8 1 -17 -6 -20 -7 -2 7 -5 31 -5 30 -1 42 3 42 13 0
8 6 17 13 19 6 3 -10 6 -37 6 -38 1 -47 -2 -43 -13z"/>
<path d="M8849 2594 c-7 -9 -23 -20 -36 -25 -13 -5 -23 -17 -23 -28 0 -11 -3
-28 -6 -38 -5 -17 -5 -17 6 1 10 15 14 16 21 5 7 -11 9 -11 9 -1 0 7 4 11 9 7
5 -3 13 5 17 17 3 13 15 35 26 51 15 21 16 27 5 27 -8 0 -21 -7 -28 -16z"/>
<path d="M9109 2588 c7 -10 17 -18 22 -18 5 0 9 8 8 18 0 11 -2 12 -6 4 -4
-10 -8 -10 -21 0 -15 12 -16 11 -3 -4z"/>
<path d="M8996 2285 c4 -8 7 -15 9 -15 2 0 5 7 9 15 3 9 0 15 -9 15 -9 0 -12
-6 -9 -15z"/>
<path d="M9747 2317 l-17 -32 20 24 c17 20 26 41 18 41 -2 0 -11 -15 -21 -33z"/>
<path d="M9656 2301 c-9 -15 22 -33 44 -26 17 5 19 10 9 21 -13 16 -45 19 -53
5z"/>
<path d="M5872 2349 c-7 -12 -11 -24 -7 -27 7 -8 25 17 25 36 0 17 -3 15 -18
-9z"/>
<path d="M5620 2315 c-7 -9 -8 -15 -2 -15 5 0 12 7 16 15 3 8 4 15 2 15 -2 0
-9 -7 -16 -15z"/>
<path d="M5815 2300 c4 -6 -6 -10 -21 -10 -20 0 -25 -3 -17 -11 12 -12 58 -2
74 17 9 11 7 14 -15 14 -16 0 -25 -4 -21 -10z"/>
</g>
</svg>
